<svg xmlns="http://www.w3.org/2000/svg" width="89" height="36" viewBox="0 0 89 36" fill="none">
<rect width="89" height="36" rx="5" fill="#2F91B2"/>
<path d="M23.46 12.06C24.1667 12.06 24.7933 12.2267 25.34 12.56C25.8867 12.8933 26.3067 13.3533 26.6 13.94C26.9067 14.5133 27.06 15.16 27.06 15.88C27.06 16.9467 26.7533 18.04 26.14 19.16C25.54 20.2667 24.7467 21.1867 23.76 21.92C22.7867 22.64 21.7733 23 20.72 23C20.2667 23 19.8133 22.82 19.36 22.46C19.2 23.1267 19.0733 23.8067 18.98 24.5C18.9 25.2067 18.8533 25.62 18.84 25.74C18.7333 26.6467 18.6267 27.3 18.52 27.7C18.4267 28.1 18.2733 28.3 18.06 28.3C17.7133 28.3 17.3267 28.1867 16.9 27.96C16.4867 27.7333 16.1333 27.46 15.84 27.14C15.5333 26.8333 15.38 26.5667 15.38 26.34C15.38 26.0867 15.4933 25.5267 15.72 24.66C15.9467 23.7933 16.2933 22.54 16.76 20.9C17.1733 19.4333 17.4933 18.28 17.72 17.44C17.9467 16.6 18.06 16.0667 18.06 15.84C18.06 15.7333 18 15.6267 17.88 15.52C17.7733 15.4 17.5933 15.2333 17.34 15.02C17.06 14.7933 16.8533 14.6133 16.72 14.48C16.5867 14.3467 16.52 14.2067 16.52 14.06C16.52 13.78 16.6467 13.4533 16.9 13.08C17.1667 12.7067 17.4733 12.3867 17.82 12.12C18.18 11.8533 18.4867 11.72 18.74 11.72C19.1267 11.72 19.5667 11.9333 20.06 12.36C20.5533 12.7867 20.9067 13.2133 21.12 13.64L21.9 12.32C22.42 12.1467 22.94 12.06 23.46 12.06ZM20.72 20.44C21.1467 20.44 21.6133 20.22 22.12 19.78C22.6267 19.3267 23.0533 18.7733 23.4 18.12C23.7467 17.4533 23.92 16.82 23.92 16.22C23.92 15.78 23.8133 15.44 23.6 15.2C23.3867 14.96 23.08 14.84 22.68 14.84C22.2133 14.84 21.7867 15.1067 21.4 15.64C21.0267 16.16 20.7267 16.8 20.5 17.56C20.2867 18.32 20.18 19.02 20.18 19.66C20.18 19.9133 20.2267 20.1067 20.32 20.24C20.4267 20.3733 20.56 20.44 20.72 20.44ZM33.5559 11.7C34.5026 11.8067 35.3626 12.0933 36.1359 12.56C36.9226 13.0133 37.5359 13.56 37.9759 14.2C38.4159 14.84 38.6359 15.48 38.6359 16.12C38.6359 17.08 38.3893 18.1 37.8959 19.18C37.4026 20.26 36.7159 21.1667 35.8359 21.9C34.9559 22.6333 33.9759 23 32.8959 23C32.3626 23 31.7959 22.8067 31.1959 22.42C30.5959 22.02 30.0893 21.54 29.6759 20.98C29.2759 20.4067 29.0759 19.9 29.0759 19.46C29.0759 18.6467 29.1759 17.8133 29.3759 16.96C29.5759 16.0933 29.8826 15.2533 30.2959 14.44C30.6826 14.2267 31.0693 14.12 31.4559 14.12C31.6293 14.12 31.7893 14.14 31.9359 14.18C31.8826 14.02 31.8559 13.8333 31.8559 13.62C31.8559 13.1933 32.0026 12.8067 32.2959 12.46C32.6026 12.1133 33.0226 11.86 33.5559 11.7ZM32.1759 20.72C33.2826 20.3467 34.1426 19.7067 34.7559 18.8C35.3693 17.8933 35.7759 16.8133 35.9759 15.56C35.3759 15.1333 34.5626 14.92 33.5359 14.92C33.2826 14.92 33.0893 14.9267 32.9559 14.94C33.1026 15.2067 33.1759 15.5067 33.1759 15.84C32.8293 16.3867 32.5626 16.9933 32.3759 17.66C32.1893 18.3133 32.0959 18.9733 32.0959 19.64C32.0959 20.04 32.1226 20.4 32.1759 20.72ZM46.3308 14.1C45.7308 14.5533 45.2441 15 44.8708 15.44C44.5108 15.88 44.3308 16.2533 44.3308 16.56C44.3308 16.7067 44.4574 16.86 44.7108 17.02C44.9641 17.1667 45.3841 17.3733 45.9708 17.64C46.9041 18.0667 47.6374 18.4667 48.1708 18.84C48.7041 19.2 48.9708 19.62 48.9708 20.1C48.9708 20.58 48.6974 21.0467 48.1508 21.5C47.6174 21.94 46.9508 22.3 46.1508 22.58C45.3508 22.86 44.6041 23 43.9108 23C43.3908 23 42.8441 22.8933 42.2708 22.68C41.6974 22.4533 41.2174 22.1733 40.8308 21.84C40.4441 21.4933 40.2508 21.1667 40.2508 20.86C40.2508 20.3133 40.4241 19.88 40.7708 19.56C41.1308 19.2267 41.5974 19.06 42.1708 19.06C42.4374 19.06 42.7108 19.1 42.9908 19.18C43.2174 19.9 43.4108 20.4133 43.5708 20.72C44.3841 20.5067 45.1108 20.1467 45.7508 19.64C44.6308 19.16 43.6041 18.62 42.6708 18.02C41.7508 17.42 41.2908 16.86 41.2908 16.34C41.2908 15.8067 41.5374 15.1733 42.0308 14.44C42.5241 13.6933 43.1508 13.0533 43.9108 12.52C44.6841 11.9733 45.4708 11.7 46.2708 11.7C46.8174 11.7 47.3374 11.86 47.8308 12.18C48.3374 12.5 48.7441 12.9 49.0508 13.38C49.3574 13.86 49.5108 14.3267 49.5108 14.78C49.5108 15.22 49.3374 15.58 48.9908 15.86C48.6574 16.1267 48.2308 16.26 47.7108 16.26C47.3774 16.26 47.0374 16.1933 46.6908 16.06C46.6641 15.5267 46.5441 14.8733 46.3308 14.1ZM55.907 15.14C55.467 17.1533 55.1804 18.7933 55.047 20.06C55.9004 19.6467 56.587 19.22 57.107 18.78C57.6937 18.98 58.127 19.26 58.407 19.62C58.7004 19.9667 58.847 20.3667 58.847 20.82C58.847 21.14 58.6204 21.4733 58.167 21.82C57.7137 22.1533 57.1737 22.4333 56.547 22.66C55.9204 22.8867 55.387 23 54.947 23C54.5604 23 54.127 22.8867 53.647 22.66C53.1804 22.42 52.7804 22.1467 52.447 21.84C52.1137 21.52 51.947 21.2467 51.947 21.02C51.947 20.8333 52.0137 20.4333 52.147 19.82C52.2937 19.1933 52.4204 18.66 52.527 18.22C52.647 17.7667 52.7337 17.4333 52.787 17.22L53.267 15.3L52.047 15.38C51.8204 15.2733 51.647 15.1067 51.527 14.88C51.407 14.6533 51.347 14.3933 51.347 14.1C51.347 13.5667 51.5404 13.1133 51.927 12.74C52.407 12.7667 52.9937 12.7933 53.687 12.82C53.687 11.9667 53.7804 11.0267 53.967 10C54.1537 8.96 54.3604 8.44 54.587 8.44C54.867 8.44 55.2204 8.56 55.647 8.8C56.0737 9.04 56.447 9.32 56.767 9.64C57.087 9.96 57.247 10.24 57.247 10.48C57.247 10.7867 57.187 11.1 57.067 11.42C56.9604 11.7267 56.7804 12.1533 56.527 12.7C56.7537 12.6733 57.327 12.58 58.247 12.42L58.707 12.34C58.947 12.4733 59.127 12.6667 59.247 12.92C59.3804 13.1733 59.447 13.4467 59.447 13.74C59.447 13.98 59.4004 14.2133 59.307 14.44C59.2137 14.6667 59.0737 14.86 58.887 15.02L55.907 15.14ZM68.3989 19.8C67.5722 20.4667 66.7122 21.06 65.8189 21.58C64.9256 22.1 64.2389 22.36 63.7589 22.36C63.5589 22.36 63.2922 22.2533 62.9589 22.04C62.6389 21.8133 62.3522 21.5467 62.0989 21.24C61.8589 20.9333 61.7389 20.6533 61.7389 20.4C61.7389 20.16 61.7922 19.8467 61.8989 19.46C62.0189 19.0733 62.2056 18.5133 62.4589 17.78C62.8322 16.74 63.0189 16.0933 63.0189 15.84C63.0189 15.7333 62.9522 15.62 62.8189 15.5C62.6989 15.3667 62.5122 15.2067 62.2589 15.02C61.9656 14.7933 61.7456 14.6133 61.5989 14.48C61.4656 14.3467 61.3989 14.2067 61.3989 14.06C61.3989 13.78 61.5256 13.4533 61.7789 13.08C62.0456 12.7067 62.3522 12.3867 62.6989 12.12C63.0589 11.8533 63.3656 11.72 63.6189 11.72C63.8989 11.72 64.2189 11.8467 64.5789 12.1C64.9522 12.3533 65.2722 12.6467 65.5389 12.98C65.8189 13.3 65.9589 13.5467 65.9589 13.72C65.9589 14.4667 65.8522 15.36 65.6389 16.4C65.4389 17.4267 65.1456 18.48 64.7589 19.56C65.8389 19 66.9189 18.28 67.9989 17.4C68.1722 15.6933 68.3389 14.4133 68.4989 13.56C68.6589 12.6933 68.8856 12.26 69.1789 12.26C69.3789 12.26 69.6789 12.4 70.0789 12.68C70.4922 12.9467 70.8589 13.2533 71.1789 13.6C71.5122 13.9333 71.6789 14.1933 71.6789 14.38C71.6789 14.66 71.4722 15.9333 71.0589 18.2C70.6456 20.4533 70.2122 22.62 69.7589 24.7C69.3056 26.7933 68.9789 28 68.7789 28.32C68.4856 28.8 68.0056 29.22 67.3389 29.58C66.6722 29.94 66.0256 30.12 65.3989 30.12C64.8656 30.12 64.2922 29.94 63.6789 29.58C63.0789 29.22 62.5722 28.7733 62.1589 28.24C61.7589 27.72 61.5589 27.24 61.5589 26.8C61.5589 26.2133 62.2256 25.3533 63.5589 24.22C64.8922 23.1 66.6256 21.8067 68.7589 20.34L68.3989 19.8ZM68.0789 23.06C65.7322 24.9 64.5589 26.18 64.5589 26.9C64.5589 27.1533 64.6922 27.3867 64.9589 27.6C65.2256 27.8133 65.5589 27.9533 65.9589 28.02C66.3989 27.3933 66.7656 26.7133 67.0589 25.98C67.3656 25.26 67.7056 24.2867 68.0789 23.06Z" fill="white"/>
</svg>